<?xml version="1.0" ?><!DOCTYPE svg  PUBLIC '-//W3C//DTD SVG 1.1//EN'  'http://www.w3.org/Graphics/SVG/1.1/DTD/svg11.dtd'><svg enable-background="new 0 0 77.945 77.945" height="77.945px" id="Layer_1" version="1.1" viewBox="0 0 77.945 77.945" width="77.945px" xml:space="preserve" xmlns="http://www.w3.org/2000/svg" xmlns:xlink="http://www.w3.org/1999/xlink"><g><g><path d="M0,38.972C0.001,17.448,17.449,0,38.973,0l0,0c21.522,0,38.972,17.448,38.973,38.973l0,0    c-0.001,21.523-17.449,38.971-38.973,38.973l0,0C17.449,77.943,0.001,60.496,0,38.972L0,38.972z M12.132,12.13    C5.262,19.001,1.014,28.488,1.014,38.972l0,0c0,10.484,4.248,19.971,11.117,26.842l0,0c6.87,6.869,16.357,11.117,26.842,11.117    l0,0c10.483,0,19.971-4.248,26.842-11.117l0,0c6.871-6.871,11.117-16.357,11.117-26.842l0,0c0-10.483-4.246-19.972-11.117-26.843    l0,0C58.943,5.26,49.457,1.013,38.973,1.013l0,0C28.489,1.013,19.002,5.26,12.132,12.13L12.132,12.13z"/></g><g><path d="M0,38.972C0.001,17.448,17.449,0,38.973,0l0,0c21.522,0,38.972,17.448,38.973,38.973l0,0    c-0.001,21.523-17.449,38.971-38.973,38.973l0,0C17.449,77.943,0.001,60.496,0,38.972L0,38.972z M12.132,12.13    C5.262,19.001,1.014,28.488,1.014,38.972l0,0c0,10.484,4.248,19.971,11.117,26.842l0,0c6.87,6.869,16.357,11.117,26.842,11.117    l0,0c10.483,0,19.971-4.248,26.842-11.117l0,0c6.871-6.871,11.117-16.357,11.117-26.842l0,0c0-10.483-4.246-19.972-11.117-26.843    l0,0C58.943,5.26,49.457,1.013,38.973,1.013l0,0C28.489,1.013,19.002,5.26,12.132,12.13L12.132,12.13z"/></g><g><polygon points="16.347,39.073 16.347,37.873 60.597,37.873 60.597,39.073 16.347,39.073   "/></g></g></svg>